<svg width="80" height="71" viewBox="0 0 80 71" fill="none" xmlns="http://www.w3.org/2000/svg">
<path d="M19.1743 46.9568C20.5222 47.3409 21.946 47.3733 23.31 47.0511C24.6741 46.7289 25.9329 46.0628 26.9665 45.1161C29.0669 43.21 31.9547 42.3797 34.6605 42.5187C39.483 42.7499 43.8045 45.3207 47.8213 47.1613C49.6865 48.0203 51.6151 48.8486 53.7319 49.2495C58.8449 50.225 63.4997 47.7013 67.271 44.0567C75.0428 36.5529 77.0982 24.1857 74.7462 15.6286C73.2041 10.0247 65.3158 -1.01315 55.0572 0.0748897C45.3241 1.10976 51.1856 15.2195 41.9802 16.5919C31.8095 18.1094 31.4495 2.2203 18.9882 4.38002C7.7396 6.33113 2.13782 16.3158 5.65146 24.5047C7.36738 28.5031 10.652 31.6506 12.4006 35.608C14.2781 39.8559 13.4457 45.2327 19.1743 46.9568Z" fill="#2D9CDB"/>
<path opacity="0.8" d="M19.1743 46.9568C20.5222 47.3409 21.946 47.3733 23.31 47.0511C24.6741 46.7289 25.9329 46.0628 26.9665 45.1161C29.0669 43.21 31.9547 42.3797 34.6605 42.5187C39.483 42.7499 43.8045 45.3207 47.8213 47.1613C49.6865 48.0203 51.6151 48.8486 53.7319 49.2495C58.8449 50.225 63.4997 47.7013 67.271 44.0567C75.0428 36.5529 77.0982 24.1857 74.7462 15.6286C73.2041 10.0247 65.3158 -1.01315 55.0572 0.0748897C45.3241 1.10976 51.1856 15.2195 41.9802 16.5919C31.8095 18.1094 31.4495 2.2203 18.9882 4.38002C7.7396 6.33113 2.13782 16.3158 5.65146 24.5047C7.36738 28.5031 10.652 31.6506 12.4006 35.608C14.2781 39.8559 13.4457 45.2327 19.1743 46.9568Z" fill="white"/>
<path d="M40.0965 70.9999C61.997 70.9999 79.7508 69.9634 79.7508 68.6848C79.7508 67.4062 61.997 66.3696 40.0965 66.3696C18.1961 66.3696 0.442322 67.4062 0.442322 68.6848C0.442322 69.9634 18.1961 70.9999 40.0965 70.9999Z" fill="#F5F5F5"/>
<path d="M63.6469 16.6879C63.9332 17.6471 65.4098 19.4428 65.5264 20.7496C65.643 22.0565 63.1253 24.1467 63.1253 24.1467C63.1253 24.1467 61.2438 17.8557 62.4218 17.1215C63.5998 16.3873 63.6469 16.6879 63.6469 16.6879Z" fill="#263238"/>
<path d="M58.4766 23.4841C58.0308 23.8563 57.5931 24.1692 57.137 24.4903C56.681 24.8114 56.2106 25.1039 55.732 25.3779C55.2517 25.6621 54.7567 25.9209 54.2492 26.1531C53.9915 26.2696 53.7359 26.3842 53.47 26.4844C53.3391 26.5375 53.2062 26.5887 53.0712 26.6337L52.6621 26.7768C52.3124 26.8746 51.9465 26.9011 51.5864 26.8546C51.2853 26.8193 50.9873 26.7619 50.6947 26.6828C50.1493 26.5318 49.6155 26.3418 49.0974 26.1142C48.0916 25.6751 47.1214 25.1588 46.1953 24.5701L46.5777 23.8583C47.0604 24.0629 47.5553 24.2674 48.0461 24.4453C48.537 24.6232 49.0319 24.8114 49.5269 24.9648C50.0094 25.1229 50.5012 25.2513 50.9994 25.3493C51.2282 25.394 51.4599 25.422 51.6927 25.4331C51.8663 25.4466 52.0409 25.4286 52.2081 25.38C52.6747 25.2014 53.1309 24.9966 53.5743 24.7664C53.8013 24.6478 54.0263 24.5271 54.2472 24.3962C54.4681 24.2653 54.693 24.1385 54.9119 24.0036C55.3516 23.7315 55.7811 23.4432 56.2065 23.1466C56.6319 22.8501 57.0552 22.5331 57.4336 22.2324L58.4766 23.4841Z" fill="#E58A7B"/>
<path d="M59.5565 21.3061C59.0492 20.9093 56.9509 22.208 56.3148 22.75L56.7791 25.5581C56.7791 25.5581 59.7958 24.2941 59.9757 23.4311C60.1659 22.5291 59.9348 21.6088 59.5565 21.3061Z" fill="#2D9CDB"/>
<path opacity="0.2" d="M59.5565 21.3061C59.0492 20.9093 56.9509 22.208 56.3148 22.75L56.7791 25.5581C56.7791 25.5581 59.7958 24.2941 59.9757 23.4311C60.1659 22.5291 59.9348 21.6088 59.5565 21.3061Z" fill="black"/>
<path d="M66.6145 29.8038L60.2457 31.0452C56.955 22.1343 57.6708 21.8419 57.6708 21.8419C58.1336 21.5876 58.6118 21.3622 59.1025 21.167L59.1884 21.1342C59.5974 20.9849 59.6792 20.9624 60.2232 20.8029C61.1599 20.58 62.0332 20.3939 63.1151 20.2405L63.3197 20.2119C63.5242 20.1873 63.7103 20.1669 63.8984 20.1485C64.0252 20.1341 64.152 20.126 64.2727 20.1178L64.6818 20.0953C65.3812 20.0605 65.8823 20.0707 65.8823 20.0707C65.688 25.6357 66.003 27.233 66.6145 29.8038Z" fill="#2D9CDB"/>
<path opacity="0.2" d="M66.6145 29.8038L60.2457 31.0452C56.955 22.1343 57.6708 21.8419 57.6708 21.8419C58.1336 21.5876 58.6118 21.3622 59.1025 21.167L59.1884 21.1342C59.5974 20.9849 59.6792 20.9624 60.2232 20.8029C61.1599 20.58 62.0332 20.3939 63.1151 20.2405L63.3197 20.2119C63.5242 20.1873 63.7103 20.1669 63.8984 20.1485C64.0252 20.1341 64.152 20.126 64.2727 20.1178L64.6818 20.0953C65.3812 20.0605 65.8823 20.0707 65.8823 20.0707C65.688 25.6357 66.003 27.233 66.6145 29.8038Z" fill="black"/>
<path d="M61.6262 17.3281C61.2171 18.005 62.6999 18.3179 63.5773 17.6246C64.2788 17.0683 64.1131 15.7839 63.5118 15.4853C62.9105 15.1867 61.6262 17.3281 61.6262 17.3281Z" fill="#2D9CDB"/>
<path opacity="0.4" d="M61.6262 17.3281C61.2171 18.005 62.6999 18.3179 63.5773 17.6246C64.2788 17.0683 64.1131 15.7839 63.5118 15.4853C62.9105 15.1867 61.6262 17.3281 61.6262 17.3281Z" fill="black"/>
<path d="M67.8252 66.6868L66.232 66.8054L65.6491 63.1384L67.2423 63.0198L67.8252 66.6868Z" fill="#E58A7B"/>
<path d="M79.0942 61.5617L77.7423 62.4125L75.3351 59.5574L76.687 58.7046L79.0942 61.5617Z" fill="#E58A7B"/>
<path d="M65.6491 63.1383L65.9722 65.1753L67.543 64.9115L67.2444 63.0217L65.6491 63.1383Z" fill="#CF6F64"/>
<path d="M76.6891 58.7065L75.3351 59.5573L76.3332 60.7395L77.7158 59.9234L76.6891 58.7065Z" fill="#CF6F64"/>
<path d="M60.3439 31.0453C60.3439 31.0453 60.3214 43.6886 61.3542 48.4499C62.4299 53.4033 65.5939 64.6723 65.5939 64.6723L67.8886 64.3758C67.8886 64.3758 66.0949 52.9922 65.33 48.0695C64.4976 42.7049 65.0089 30.1372 65.0089 30.1372L60.3439 31.0453Z" fill="#2D9CDB"/>
<path opacity="0.7" d="M60.3439 31.0453C60.3439 31.0453 60.3214 43.6886 61.3542 48.4499C62.4299 53.4033 65.5939 64.6723 65.5939 64.6723L67.8886 64.3758C67.8886 64.3758 66.0949 52.9922 65.33 48.0695C64.4976 42.7049 65.0089 30.1372 65.0089 30.1372L60.3439 31.0453Z" fill="black"/>
<path opacity="0.5" d="M64.8658 35.7409L63.741 34.6201C63.7839 39.4774 64.0559 41.8765 64.9906 44.4902C64.8433 41.7272 64.8311 38.4589 64.8658 35.7409Z" fill="black"/>
<path d="M61.9269 30.7179C61.9269 30.7179 65.3567 41.1668 67.0583 47.1858C68.8539 53.5361 75.7381 60.5593 75.7381 60.5593L77.7137 59.4181C77.7137 59.4181 73.0098 52.7508 71.2795 46.8258C67.7618 34.7981 69.2078 32.2498 66.6124 29.8037L61.9269 30.7179Z" fill="#2D9CDB"/>
<path opacity="0.7" d="M61.9269 30.7179C61.9269 30.7179 65.3567 41.1668 67.0583 47.1858C68.8539 53.5361 75.7381 60.5593 75.7381 60.5593L77.7137 59.4181C77.7137 59.4181 73.0098 52.7508 71.2795 46.8258C67.7618 34.7981 69.2078 32.2498 66.6124 29.8037L61.9269 30.7179Z" fill="black"/>
<path d="M59.2313 13.6387C60.1434 13.9434 60.9717 16.2074 61.0065 17.0991C61.0413 17.9908 58.3641 19.22 58.3641 19.22C58.3641 19.22 57.1841 16.3567 57.5133 14.5161C57.6565 13.7164 59.2313 13.6387 59.2313 13.6387Z" fill="#263238"/>
<path d="M46.7126 23.9339L45.6307 22.7559L45.2769 24.2325C45.2769 24.2325 46.0459 24.9115 46.6676 24.6783L46.7126 23.9339Z" fill="#E58A7B"/>
<path d="M44.5346 22.4185L43.7778 23.0197L45.2769 24.2325L45.6308 22.7559L44.5346 22.4185Z" fill="#E58A7B"/>
<path d="M77.319 62.1074L78.5829 60.8333C78.6047 60.8115 78.6337 60.7982 78.6645 60.796C78.6952 60.7937 78.7258 60.8026 78.7506 60.821L79.902 61.6759C79.9305 61.6982 79.954 61.7264 79.9708 61.7585C79.9876 61.7906 79.9974 61.8259 79.9995 61.862C80.0016 61.8982 79.996 61.9344 79.9831 61.9682C79.9702 62.0021 79.9502 62.0328 79.9245 62.0583C79.4746 62.494 79.2374 62.6821 78.6811 63.2425C78.3395 63.5881 77.8753 64.126 77.4028 64.6026C76.9304 65.0791 76.4334 64.6353 76.5847 64.398C77.274 63.3202 77.1513 62.9173 77.1983 62.3692C77.2054 62.2702 77.2483 62.1771 77.319 62.1074Z" fill="#263238"/>
<path d="M66.1256 66.5762H67.9213C67.9529 66.5761 67.9835 66.5872 68.0078 66.6073C68.0321 66.6275 68.0485 66.6556 68.0542 66.6866L68.3365 68.106C68.3428 68.1409 68.3413 68.1768 68.3322 68.2111C68.3231 68.2453 68.3065 68.2772 68.2836 68.3043C68.2608 68.3315 68.2322 68.3533 68.2 68.3681C68.1678 68.383 68.1327 68.3905 68.0972 68.3903C67.4693 68.38 67.1666 68.3432 66.3772 68.3432C65.8925 68.3432 64.8903 68.3923 64.2195 68.3923C63.5487 68.3923 63.4771 67.7297 63.7532 67.6704C64.9803 67.4004 65.4609 67.0302 65.8638 66.6743C65.9369 66.6119 66.0295 66.5771 66.1256 66.5762Z" fill="#263238"/>
<g style="mix-blend-mode:multiply" opacity="0.27">
<path d="M66.0889 23.2959L65.1072 23.8808L66.2402 28.141C65.9927 26.8504 66.1032 25.4331 66.0889 23.2959Z" fill="#2D9CDB"/>
</g>
<path d="M60.5095 16.6451C61.2069 17.228 62.2193 18.0767 63.4117 17.0848C64.4343 16.2299 65.1501 13.9864 63.3155 13.9045C62.3563 13.8616 60.5095 16.6451 60.5095 16.6451Z" fill="#263238"/>
<path d="M62.1948 17.0437C62.1948 18.009 62.3441 19.7495 63.1151 20.2444C63.1151 20.2444 63.0456 21.2384 61.3154 21.5738C59.4154 21.944 60.2232 20.8069 60.2232 20.8069C61.2131 20.3569 61.0413 19.592 60.7141 18.9048L62.1948 17.0437Z" fill="#E58A7B"/>
<path d="M61.5915 17.8025L60.7161 18.9049C60.7928 19.0642 60.8558 19.2298 60.9043 19.3998C61.2888 19.2648 61.7489 18.7249 61.7101 18.3015C61.7017 18.1293 61.6615 17.9601 61.5915 17.8025Z" fill="#CF6F64"/>
<path d="M62.2868 14.827C62.4913 16.3997 62.6161 17.0603 61.9862 18.0113C61.0392 19.443 59.0636 19.3509 58.3907 17.8723C57.7772 16.5409 57.5481 14.1909 58.947 13.2808C59.2546 13.0772 59.6092 12.9557 59.977 12.9278C60.3449 12.8999 60.7137 12.9667 61.0485 13.1217C61.3833 13.2766 61.6728 13.5147 61.8895 13.8132C62.1063 14.1117 62.2431 14.4607 62.2868 14.827Z" fill="#E58A7B"/>
<path d="M59.5545 12.0719C58.491 12.8266 60.6241 13.0495 60.6261 14.1437C60.6261 14.5957 61.3685 16.0293 62.4239 15.9475L63.4464 14.1314C64.5222 12.393 61.98 10.3478 59.5545 12.0719Z" fill="#263238"/>
<path d="M59.5545 12.072C57.6831 11.9738 56.8671 13.4627 57.0818 14.8003C58.3873 14.4748 59.7376 14.3677 61.0781 14.4833C63.6428 14.7451 59.5545 12.072 59.5545 12.072Z" fill="#263238"/>
<path d="M62.7981 16.1828C62.8241 16.488 62.7277 16.7911 62.5302 17.0254C62.2664 17.3342 61.9166 17.1522 61.7939 16.7861C61.6896 16.4548 61.7019 15.8964 62.0578 15.7206C62.1364 15.6842 62.2228 15.668 62.3092 15.6734C62.3957 15.6788 62.4794 15.7056 62.5529 15.7515C62.6264 15.7974 62.6873 15.8608 62.7301 15.9361C62.7729 16.0114 62.7963 16.0962 62.7981 16.1828Z" fill="#E58A7B"/>
<path d="M60.0146 15.7206C60.0392 15.8474 59.9921 15.9619 59.9103 15.9783C59.8285 15.9946 59.7406 15.9047 59.716 15.7738C59.6915 15.6429 59.7385 15.5304 59.8203 15.514C59.9022 15.4977 59.9901 15.5938 60.0146 15.7206Z" fill="#263238"/>
<path d="M58.585 15.9987C58.6096 16.1255 58.5625 16.2421 58.4807 16.2584C58.3989 16.2748 58.311 16.1848 58.2864 16.0539C58.2619 15.923 58.3089 15.8105 58.3907 15.7962C58.4725 15.7819 58.5605 15.8698 58.585 15.9987Z" fill="#263238"/>
<path d="M58.4296 15.7983L58.1085 15.7717C58.1085 15.7717 58.3109 15.9783 58.4296 15.7983Z" fill="#263238"/>
<path d="M59.0063 16.1438C58.9488 16.4536 58.8498 16.7543 58.7118 17.0375C58.7851 17.0717 58.8651 17.0894 58.946 17.0894C59.0269 17.0894 59.1068 17.0717 59.1801 17.0375L59.0063 16.1438Z" fill="#DF5753"/>
<path d="M59.714 17.4467C59.7052 17.4468 59.6966 17.4438 59.6899 17.4382C59.6831 17.4326 59.6786 17.4247 59.6772 17.416C59.6763 17.4112 59.6764 17.4062 59.6775 17.4014C59.6785 17.3966 59.6806 17.3921 59.6834 17.3881C59.6863 17.3841 59.6899 17.3807 59.6941 17.3781C59.6983 17.3755 59.703 17.3738 59.7078 17.3731C59.8659 17.3456 60.0153 17.2813 60.1439 17.1853C60.2725 17.0894 60.3768 16.9646 60.4482 16.8209C60.4501 16.8163 60.4528 16.8122 60.4563 16.8087C60.4598 16.8052 60.4639 16.8024 60.4685 16.8005C60.4731 16.7986 60.4779 16.7976 60.4829 16.7976C60.4878 16.7976 60.4927 16.7986 60.4973 16.8004C60.5018 16.8023 60.506 16.8051 60.5095 16.8086C60.513 16.812 60.5158 16.8162 60.5177 16.8207C60.5196 16.8253 60.5206 16.8302 60.5206 16.8351C60.5206 16.8401 60.5196 16.845 60.5177 16.8495C60.4428 17.0057 60.3314 17.1414 60.193 17.2454C60.0545 17.3494 59.893 17.4184 59.7222 17.4467H59.714Z" fill="#263238"/>
<path d="M60.3438 15.1766C60.3251 15.1768 60.307 15.1702 60.2927 15.1582C60.2239 15.0928 60.1406 15.0446 60.0496 15.0176C59.9586 14.9906 59.8625 14.9855 59.7692 15.0027C59.7485 15.0079 59.7267 15.0046 59.7085 14.9937C59.6903 14.9828 59.6772 14.965 59.672 14.9444C59.6669 14.9238 59.6701 14.902 59.681 14.8838C59.692 14.8656 59.7097 14.8524 59.7303 14.8473C59.8482 14.8241 59.97 14.8292 60.0856 14.8623C60.2011 14.8954 60.3072 14.9554 60.395 15.0375C60.409 15.0517 60.4168 15.0708 60.4168 15.0907C60.4168 15.1106 60.409 15.1297 60.395 15.1438C60.3893 15.1526 60.3817 15.1601 60.3729 15.1657C60.3641 15.1714 60.3542 15.1751 60.3438 15.1766Z" fill="#263238"/>
<path d="M57.7936 15.4609C57.7841 15.4631 57.7744 15.4631 57.7649 15.4609C57.7556 15.4571 57.7471 15.4515 57.74 15.4444C57.7328 15.4373 57.7272 15.4288 57.7234 15.4194C57.7196 15.4101 57.7177 15.4001 57.7178 15.39C57.7179 15.3799 57.72 15.37 57.724 15.3607C57.7675 15.2489 57.8372 15.1491 57.9273 15.0697C58.0173 14.9904 58.125 14.9338 58.2415 14.9046C58.2513 14.9026 58.2614 14.9026 58.2713 14.9046C58.2811 14.9066 58.2904 14.9106 58.2987 14.9163C58.3069 14.9221 58.3139 14.9294 58.3192 14.938C58.3245 14.9465 58.3279 14.9561 58.3294 14.966C58.3315 14.9757 58.3316 14.9857 58.3297 14.9954C58.3278 15.0051 58.324 15.0144 58.3184 15.0226C58.3129 15.0308 58.3058 15.0378 58.2975 15.0432C58.2892 15.0486 58.2798 15.0522 58.2701 15.0539C58.1782 15.079 58.0933 15.1251 58.0223 15.1887C57.9513 15.2522 57.8961 15.3314 57.8611 15.42C57.8545 15.4323 57.8448 15.4425 57.8329 15.4497C57.821 15.4569 57.8074 15.4608 57.7936 15.4609Z" fill="#263238"/>
<path d="M76.8445 62.8498C76.8094 62.8489 76.7751 62.8394 76.7444 62.8224C76.7138 62.8053 76.6878 62.781 76.6686 62.7516C76.654 62.7343 76.6443 62.7135 76.6403 62.6912C76.6364 62.6689 76.6384 62.646 76.6461 62.6248C76.7177 62.4325 77.2821 62.3098 77.3455 62.2955C77.3529 62.2942 77.3605 62.2951 77.3674 62.298C77.3743 62.3009 77.3802 62.3057 77.3844 62.3119C77.3887 62.3178 77.391 62.325 77.391 62.3323C77.391 62.3397 77.3887 62.3468 77.3844 62.3528C77.274 62.5348 77.0572 62.8395 76.8547 62.8498H76.8445ZM77.2719 62.3896C77.049 62.4469 76.7545 62.5491 76.7177 62.6514C76.714 62.6608 76.7133 62.671 76.7155 62.6808C76.7176 62.6907 76.7227 62.6996 76.7299 62.7066C76.7426 62.7277 76.7606 62.7451 76.7822 62.7569C76.8037 62.7688 76.828 62.7747 76.8526 62.7741C76.961 62.768 77.1144 62.6268 77.2719 62.3896Z" fill="#2D9CDB"/>
<path d="M77.1799 62.3898C76.9754 62.3898 76.7197 62.3387 76.6441 62.2282C76.6273 62.2031 76.6195 62.173 76.6221 62.1429C76.6247 62.1128 76.6375 62.0844 76.6584 62.0626C76.6763 62.0398 76.6989 62.021 76.7247 62.0077C76.7504 61.9943 76.7787 61.9865 76.8077 61.9849H76.824C77.0531 61.9849 77.3681 62.2937 77.3803 62.3059C77.3852 62.3106 77.3888 62.3164 77.3906 62.3229C77.3924 62.3294 77.3924 62.3363 77.3906 62.3428C77.3887 62.3491 77.3853 62.3548 77.3807 62.3595C77.376 62.3641 77.3703 62.3675 77.364 62.3693C77.3037 62.3839 77.2419 62.3907 77.1799 62.3898ZM76.824 62.0605H76.8118C76.7934 62.0612 76.7754 62.0659 76.7592 62.0744C76.7429 62.0829 76.7287 62.0949 76.7177 62.1096C76.6891 62.1485 76.6972 62.171 76.7075 62.1853C76.7688 62.2794 77.0817 62.3325 77.274 62.31C77.1513 62.185 76.995 62.0984 76.824 62.0605Z" fill="#2D9CDB"/>
<path d="M65.5386 66.8565C65.4011 66.8687 65.2634 66.8341 65.148 66.7584C65.1207 66.7371 65.0992 66.7092 65.0856 66.6774C65.0721 66.6455 65.0668 66.6108 65.0703 66.5763C65.0701 66.5558 65.0754 66.5356 65.0854 66.5176C65.0954 66.4997 65.11 66.4847 65.1275 66.4741C65.3157 66.3636 65.9742 66.6909 66.0479 66.7277C66.0548 66.7313 66.0605 66.737 66.0641 66.7439C66.0678 66.7509 66.0692 66.7587 66.0683 66.7665C66.0674 66.7742 66.0641 66.7814 66.059 66.7873C66.0539 66.7931 66.0472 66.7973 66.0397 66.7993C65.8748 66.8338 65.7071 66.853 65.5386 66.8565ZM65.2359 66.5252C65.2119 66.5237 65.1879 66.5286 65.1664 66.5395C65.1595 66.5432 65.1538 66.5489 65.1502 66.5558C65.1465 66.5627 65.145 66.5706 65.1459 66.5784C65.1439 66.6014 65.1475 66.6247 65.1564 66.646C65.1653 66.6674 65.1793 66.6863 65.1971 66.7011C65.2993 66.789 65.5632 66.8034 65.9108 66.7461C65.6997 66.6354 65.4716 66.5607 65.2359 66.5252Z" fill="#2D9CDB"/>
<path d="M66.0315 66.795H66.0172C65.8127 66.7071 65.418 66.3594 65.4466 66.1815C65.4466 66.1406 65.4834 66.0874 65.5857 66.0771H65.6164C65.9722 66.0771 66.0642 66.7275 66.0683 66.7562C66.0692 66.763 66.0684 66.77 66.0659 66.7764C66.0634 66.7829 66.0593 66.7886 66.054 66.793C66.0469 66.7958 66.0391 66.7965 66.0315 66.795ZM65.6225 66.1487H65.6C65.5345 66.1487 65.5305 66.1794 65.5305 66.1876C65.5141 66.296 65.7841 66.568 65.9886 66.6887C65.9477 66.5291 65.8434 66.1528 65.6143 66.1528L65.6225 66.1487Z" fill="#2D9CDB"/>
<path d="M59.8592 15.5201L59.5381 15.4915C59.5381 15.4915 59.7406 15.7001 59.8592 15.5201Z" fill="#263238"/>
<path d="M61.2642 22.9339C57.8426 23.6967 58.9 21.627 59.1045 21.1709L59.1904 21.1382C59.5994 20.9889 59.6812 20.9664 60.2253 20.8069C61.1746 20.5506 62.141 20.3626 63.1172 20.2444L63.3217 20.2158C63.5262 20.1892 63.7123 20.1688 63.9005 20.1524C64.0273 20.1381 64.1541 20.1299 64.2747 20.1217L64.6838 20.0972C64.7533 20.4162 64.9231 22.1219 61.2642 22.9339Z" fill="#E58A7B"/>
<path d="M66.6349 29.411L67.0337 29.9264C67.0644 29.9652 67.0214 30.0204 66.9478 30.0348L60.2682 31.3355C60.2109 31.3478 60.1578 31.3355 60.1475 31.2926L59.9778 30.7342C59.9778 30.6954 60.0105 30.6524 60.0719 30.6401L66.5224 29.3844C66.5418 29.3787 66.5624 29.3781 66.5822 29.3828C66.6019 29.3874 66.6201 29.3972 66.6349 29.411Z" fill="#26395A"/>
<path d="M65.9088 30.3008L66.0826 30.2681C66.1174 30.2681 66.1399 30.2394 66.1338 30.2169L65.9088 29.4929C65.9088 29.4704 65.8679 29.4602 65.8331 29.4664L65.6613 29.4991C65.6266 29.4991 65.6041 29.5298 65.6102 29.5502L65.8352 30.2763C65.8413 30.2967 65.8761 30.309 65.9088 30.3008Z" fill="#2D9CDB"/>
<path d="M61.9964 32.7142L60.665 32.2192L60.8695 33.4852C60.8695 33.4852 61.8348 33.8329 62.3277 33.387L61.9964 32.7142Z" fill="#E58A7B"/>
<path d="M59.397 32.5546L59.08 33.385L60.8695 33.4852L60.665 32.2192L59.397 32.5546Z" fill="#E58A7B"/>
<path d="M60.7652 31.303L60.939 31.2703C60.9717 31.2703 60.9963 31.2416 60.9881 31.2191L60.7631 30.4951C60.7631 30.4726 60.7243 30.4624 60.6895 30.4686L60.5157 30.5013C60.4809 30.5013 60.4584 30.5319 60.4666 30.5524L60.6916 31.2784C60.6977 31.2989 60.7304 31.3112 60.7652 31.303Z" fill="#2D9CDB"/>
<path d="M63.3381 30.7998L63.5099 30.7671C63.5446 30.7671 63.5671 30.7385 63.561 30.716L63.336 29.992C63.336 29.9695 63.2951 29.9592 63.2604 29.9654L63.0886 29.9981C63.0538 29.9981 63.0313 30.0288 63.0374 30.0492L63.2624 30.7753C63.2706 30.7871 63.2824 30.7959 63.2961 30.8004C63.3098 30.8048 63.3245 30.8046 63.3381 30.7998Z" fill="#2D9CDB"/>
<path d="M62.6099 19.4324C62.7551 19.3772 62.9371 19.8885 62.8921 19.9539C62.7878 20.1032 60.8776 20.6247 60.7917 20.3323C60.7864 20.1737 60.8107 20.0156 60.8633 19.866C60.9185 19.7678 61.3419 19.9478 62.6099 19.4324Z" fill="#2D9CDB"/>
<path d="M62.2868 19.4449C62.3605 19.2752 62.5711 19.0032 62.7552 19.1586C62.9393 19.314 63.017 19.6494 62.8963 19.7046C62.7756 19.7599 62.16 19.7292 62.2868 19.4449Z" fill="#2D9CDB"/>
<path d="M62.6774 19.5328C62.8042 19.3978 63.0865 19.2117 63.2153 19.4203C63.3442 19.6289 63.2971 19.9704 63.1662 19.9807C63.0353 19.9909 62.4627 19.7557 62.6774 19.5328Z" fill="#2D9CDB"/>
<path d="M62.747 19.5022C62.7367 19.3935 62.758 19.2841 62.8085 19.1872C62.8589 19.0903 62.9363 19.0101 63.0313 18.9562C63.2644 18.8048 63.4914 18.7066 63.5814 18.5471C63.6202 18.6967 63.6278 18.8526 63.6039 19.0052C63.5569 19.2241 62.8308 19.3918 62.8799 19.582L62.747 19.5022Z" fill="#2D9CDB"/>
<path d="M62.7163 19.4919C62.6486 19.4061 62.6072 19.3025 62.597 19.1936C62.5868 19.0847 62.6084 18.9752 62.6591 18.8783C62.7695 18.6247 62.9086 18.4202 62.9004 18.2402C63.014 18.3449 63.1052 18.4715 63.1683 18.6125C63.246 18.817 62.7286 19.3549 62.8738 19.4898L62.7163 19.4919Z" fill="#2D9CDB"/>
<path d="M76.9406 59.4445C76.9365 59.4444 76.9324 59.4432 76.9288 59.441C76.9252 59.4389 76.9223 59.4359 76.9202 59.4323C76.8731 59.3668 72.1978 52.6954 70.484 46.8339C69.3655 43.074 68.5058 39.2419 67.9111 35.3644C67.5573 33.1802 67.3425 31.861 66.639 30.7791C66.6342 30.7742 66.6316 30.7676 66.6316 30.7607C66.6316 30.7539 66.6342 30.7473 66.639 30.7423C66.6438 30.7381 66.65 30.7358 66.6564 30.7358C66.6628 30.7358 66.6689 30.7381 66.6738 30.7423C67.3855 31.8344 67.6002 33.1577 67.9541 35.3481C68.5516 39.2199 69.4125 43.0465 70.531 46.8012C72.2428 52.6545 76.914 59.3177 76.9611 59.3852C76.9649 59.3902 76.967 59.3963 76.967 59.4026C76.967 59.4089 76.9649 59.415 76.9611 59.42C76.9608 59.4257 76.9586 59.4312 76.9549 59.4357C76.9513 59.4401 76.9462 59.4432 76.9406 59.4445Z" fill="#2D9CDB"/>
<path opacity="0.4" d="M76.9406 59.4445C76.9365 59.4444 76.9324 59.4432 76.9288 59.441C76.9252 59.4389 76.9223 59.4359 76.9202 59.4323C76.8731 59.3668 72.1978 52.6954 70.484 46.8339C69.3655 43.074 68.5058 39.2419 67.9111 35.3644C67.5573 33.1802 67.3425 31.861 66.639 30.7791C66.6342 30.7742 66.6316 30.7676 66.6316 30.7607C66.6316 30.7539 66.6342 30.7473 66.639 30.7423C66.6438 30.7381 66.65 30.7358 66.6564 30.7358C66.6628 30.7358 66.6689 30.7381 66.6738 30.7423C67.3855 31.8344 67.6002 33.1577 67.9541 35.3481C68.5516 39.2199 69.4125 43.0465 70.531 46.8012C72.2428 52.6545 76.914 59.3177 76.9611 59.3852C76.9649 59.3902 76.967 59.3963 76.967 59.4026C76.967 59.4089 76.9649 59.415 76.9611 59.42C76.9608 59.4257 76.9586 59.4312 76.9549 59.4357C76.9513 59.4401 76.9462 59.4432 76.9406 59.4445Z" fill="black"/>
<path d="M68.2997 64.3677L65.1746 64.7726L64.9701 63.9014L68.224 63.2122L68.2997 64.3677Z" fill="#2D9CDB"/>
<path d="M77.8794 59.3488L75.5745 60.6802L74.7973 60.0155L77.319 58.3098L77.8794 59.3488Z" fill="#2D9CDB"/>
<path d="M67.0623 22.2366C67.1728 22.8051 67.2362 23.341 67.2975 23.8952C67.3589 24.4495 67.3814 24.9976 67.3977 25.5518C67.4141 26.1104 67.4018 26.6695 67.3609 27.2268C67.3384 27.507 67.3139 27.7872 67.275 28.0695C67.2587 28.2085 67.2403 28.3497 67.2137 28.4908L67.138 28.9243C67.0542 29.2778 66.9005 29.6108 66.686 29.904C66.5101 30.1506 66.3159 30.3838 66.1052 30.6014C65.7105 31.0068 65.2867 31.3828 64.8372 31.7263C63.9675 32.3959 63.0471 32.9969 62.0843 33.524L61.6467 32.845C62.0557 32.5198 62.4647 32.1844 62.8738 31.8428C63.2828 31.5013 63.6714 31.1557 64.0457 30.7957C64.4155 30.4492 64.7645 30.0811 65.0908 29.6933C65.2406 29.5139 65.3773 29.3239 65.4998 29.1248C65.5964 28.9797 65.6657 28.8182 65.7043 28.6482C65.7709 28.1518 65.8098 27.652 65.8209 27.1512C65.8209 26.8955 65.8209 26.6399 65.8209 26.3842C65.8209 26.1286 65.8107 25.8688 65.7984 25.6111C65.7739 25.0958 65.7268 24.5885 65.6716 24.065C65.6164 23.5414 65.5448 23.024 65.4671 22.5393L67.0623 22.2366Z" fill="#E58A7B"/>
<path d="M66.8149 20.4981C67.6882 21.2057 67.4796 23.3082 67.4796 23.3082L64.5345 24.2776C64.5345 24.2776 64.6695 21.8541 64.8168 20.9828C64.9886 19.9459 65.9539 19.8007 66.8149 20.4981Z" fill="#2D9CDB"/>
<path opacity="0.2" d="M66.8149 20.4981C67.6882 21.2057 67.4796 23.3082 67.4796 23.3082L64.5345 24.2776C64.5345 24.2776 64.6695 21.8541 64.8168 20.9828C64.9886 19.9459 65.9539 19.8007 66.8149 20.4981Z" fill="black"/>
<path d="M27.9093 29.2721C27.795 28.7762 27.516 28.3337 27.1178 28.0169C26.7196 27.7 26.2257 27.5275 25.7168 27.5276H9.3553C8.75864 27.5276 8.18642 27.7646 7.76452 28.1865C7.34261 28.6084 7.10559 29.1806 7.10559 29.7773V66.1449C7.10559 66.7416 7.34261 67.3138 7.76452 67.7357C8.18642 68.1576 8.75864 68.3946 9.3553 68.3946H61.3032C61.8998 68.3946 62.4721 68.1576 62.894 67.7357C63.3159 67.3138 63.5529 66.7416 63.5529 66.1449V35.5959C63.5529 34.9992 63.3159 34.427 62.894 34.0051C62.4721 33.5832 61.8998 33.3462 61.3032 33.3462H33.0284C31.8401 33.3464 30.6868 32.9436 29.757 32.2036C28.8272 31.4636 28.1758 30.4302 27.9093 29.2721Z" fill="#2D9CDB"/>
<path opacity="0.6" d="M27.9093 29.2721C27.795 28.7762 27.516 28.3337 27.1178 28.0169C26.7196 27.7 26.2257 27.5275 25.7168 27.5276H9.3553C8.75864 27.5276 8.18642 27.7646 7.76452 28.1865C7.34261 28.6084 7.10559 29.1806 7.10559 29.7773V66.1449C7.10559 66.7416 7.34261 67.3138 7.76452 67.7357C8.18642 68.1576 8.75864 68.3946 9.3553 68.3946H61.3032C61.8998 68.3946 62.4721 68.1576 62.894 67.7357C63.3159 67.3138 63.5529 66.7416 63.5529 66.1449V35.5959C63.5529 34.9992 63.3159 34.427 62.894 34.0051C62.4721 33.5832 61.8998 33.3462 61.3032 33.3462H33.0284C31.8401 33.3464 30.6868 32.9436 29.757 32.2036C28.8272 31.4636 28.1758 30.4302 27.9093 29.2721Z" fill="black"/>
<path opacity="0.22" d="M22.1337 17.946L23.5919 22.6684C23.778 23.2694 24.1951 23.772 24.7515 24.0657C25.3079 24.3595 25.9582 24.4203 26.5595 24.235L31.2798 22.7768L22.1337 17.946Z" fill="#2D9CDB"/>
<path d="M22.1337 17.946L5.26082 23.1592C4.96297 23.2507 4.68607 23.4001 4.44598 23.5987C4.2059 23.7973 4.00732 24.0413 3.86163 24.3168C3.71593 24.5922 3.62597 24.8937 3.59689 25.2039C3.56781 25.5141 3.60019 25.8271 3.69216 26.1248L13.325 57.3099C13.417 57.6076 13.5667 57.8843 13.7656 58.1242C13.9645 58.3641 14.2087 58.5624 14.4843 58.7079C14.7598 58.8534 15.0614 58.9432 15.3717 58.9721C15.6819 59.001 15.9949 58.9685 16.2926 58.8765L37.8878 52.2051C38.1854 52.1133 38.4621 51.9639 38.702 51.7651C38.9419 51.5664 39.1402 51.3224 39.2857 51.047C39.4312 50.7716 39.521 50.4702 39.5499 50.16C39.5789 49.8499 39.5464 49.5371 39.4544 49.2395L31.2736 22.7768L22.1337 17.946Z" fill="#2D9CDB"/>
<path opacity="0.8" d="M22.1337 17.946L5.26082 23.1592C4.96297 23.2507 4.68607 23.4001 4.44598 23.5987C4.2059 23.7973 4.00732 24.0413 3.86163 24.3168C3.71593 24.5922 3.62597 24.8937 3.59689 25.2039C3.56781 25.5141 3.60019 25.8271 3.69216 26.1248L13.325 57.3099C13.417 57.6076 13.5667 57.8843 13.7656 58.1242C13.9645 58.3641 14.2087 58.5624 14.4843 58.7079C14.7598 58.8534 15.0614 58.9432 15.3717 58.9721C15.6819 59.001 15.9949 58.9685 16.2926 58.8765L37.8878 52.2051C38.1854 52.1133 38.4621 51.9639 38.702 51.7651C38.9419 51.5664 39.1402 51.3224 39.2857 51.047C39.4312 50.7716 39.521 50.4702 39.5499 50.16C39.5789 49.8499 39.5464 49.5371 39.4544 49.2395L31.2736 22.7768L22.1337 17.946Z" fill="white"/>
<g opacity="0.28">
<path opacity="0.28" d="M31.2123 50.8427L17.1741 55.1786C16.9116 55.2592 16.6278 55.2326 16.3848 55.1046C16.1418 54.9766 15.9594 54.7576 15.8774 54.4955C15.7975 54.2329 15.8247 53.9494 15.9531 53.7069C16.0814 53.4643 16.3005 53.2824 16.5626 53.2009L30.6008 48.863C30.8636 48.7824 31.1476 48.8093 31.3906 48.9377C31.6336 49.0662 31.8159 49.2856 31.8974 49.5481C31.9774 49.8107 31.9502 50.0942 31.8218 50.3367C31.6934 50.5793 31.4743 50.7612 31.2123 50.8427Z" fill="#2D9CDB"/>
</g>
<g opacity="0.28">
<path opacity="0.28" d="M16.1044 25.3964L8.68038 27.6891C8.41785 27.7691 8.13432 27.7423 7.89148 27.6144C7.64864 27.4864 7.46616 27.2678 7.38373 27.006C7.30374 26.7432 7.33087 26.4594 7.45921 26.2165C7.58755 25.9736 7.80669 25.7913 8.06887 25.7093L15.4929 23.4167C15.7554 23.3355 16.0395 23.3618 16.2826 23.4899C16.5257 23.618 16.7081 23.8373 16.7896 24.0998C16.8695 24.3626 16.8424 24.6463 16.7141 24.8892C16.5857 25.1321 16.3666 25.3144 16.1044 25.3964Z" fill="#2D9CDB"/>
</g>
<g opacity="0.28">
<path opacity="0.28" d="M22.1623 27.8283L9.89117 31.618C9.62919 31.6967 9.34674 31.6689 9.10513 31.5406C8.86353 31.4124 8.68225 31.194 8.60066 30.9329C8.52008 30.6706 8.54673 30.3871 8.67477 30.1445C8.8028 29.9018 9.02178 29.7198 9.28375 29.6383L21.5549 25.8485C21.8174 25.7679 22.1012 25.7945 22.3442 25.9225C22.5872 26.0505 22.7696 26.2695 22.8515 26.5316C22.9308 26.795 22.9029 27.0789 22.7738 27.3218C22.6447 27.5646 22.4249 27.7467 22.1623 27.8283Z" fill="#2D9CDB"/>
</g>
<g opacity="0.28">
<path opacity="0.28" d="M29.0137 30.0145L11.106 35.5365C10.8437 35.6171 10.5602 35.5904 10.3176 35.4624C10.0749 35.3343 9.89292 35.1154 9.8114 34.8534C9.73133 34.5909 9.75818 34.3073 9.88611 34.0645C10.014 33.8217 10.2327 33.6392 10.4945 33.5567L28.4022 28.0347C28.6645 27.9547 28.9477 27.9816 29.1902 28.1096C29.4327 28.2375 29.6148 28.4562 29.6968 28.7178C29.7774 28.9804 29.7508 29.2641 29.6228 29.5071C29.4948 29.7501 29.2758 29.9325 29.0137 30.0145Z" fill="#2D9CDB"/>
</g>
<g opacity="0.28">
<path opacity="0.28" d="M30.2265 33.9411L19.8165 37.1582C19.5539 37.2381 19.2704 37.2109 19.0279 37.0826C18.7853 36.9542 18.6034 36.7351 18.5218 36.473C18.4418 36.2108 18.4687 35.9275 18.5967 35.685C18.7247 35.4425 18.9433 35.2604 19.2049 35.1784L29.615 31.9614C29.8778 31.8819 30.1613 31.9093 30.404 32.0376C30.6468 32.1658 30.8292 32.3846 30.9116 32.6465C30.9915 32.909 30.9644 33.1925 30.836 33.4351C30.7076 33.6776 30.4885 33.8595 30.2265 33.9411Z" fill="#2D9CDB"/>
</g>
<g opacity="0.28">
<path opacity="0.28" d="M15.0429 38.6329L12.3208 39.4735C12.0582 39.5542 11.7745 39.5276 11.5315 39.3996C11.2885 39.2715 11.1061 39.0525 11.0241 38.7904C10.9436 38.5276 10.9705 38.2436 11.0989 38.0006C11.2273 37.7575 11.4468 37.5753 11.7093 37.4938L14.4314 36.6532C14.694 36.5731 14.9775 36.6 15.2203 36.7279C15.4632 36.8558 15.6456 37.0745 15.7281 37.3363C15.8075 37.5991 15.7801 37.8826 15.6519 38.1254C15.5236 38.3681 15.3048 38.5505 15.0429 38.6329Z" fill="#2D9CDB"/>
</g>
<g opacity="0.28">
<path opacity="0.28" d="M31.4413 37.8699L13.5336 43.4022C13.2711 43.4821 12.9876 43.4549 12.7451 43.3266C12.5025 43.1982 12.3206 42.9791 12.239 42.717C12.1585 42.4548 12.1851 42.1713 12.3131 41.9286C12.4412 41.686 12.6601 41.504 12.9221 41.4224L30.8298 35.8902C31.0921 35.8102 31.3753 35.8371 31.6178 35.965C31.8603 36.093 32.0424 36.3116 32.1244 36.5733C32.2051 36.8358 32.1785 37.1196 32.0505 37.3626C31.9225 37.6056 31.7034 37.788 31.4413 37.8699Z" fill="#2D9CDB"/>
</g>
<g opacity="0.28">
<path opacity="0.28" d="M25.7435 43.9321L14.7464 47.3291C14.4842 47.4092 14.2009 47.3822 13.9584 47.2543C13.7159 47.1263 13.5338 46.9077 13.4518 46.646C13.3718 46.3835 13.3986 46.1 13.5265 45.8571C13.6545 45.6143 13.8731 45.4318 14.1349 45.3494L25.1319 41.9523C25.3947 41.8723 25.6785 41.8995 25.9214 42.0278C26.1643 42.1562 26.3466 42.3753 26.4286 42.6375C26.5091 42.9 26.4821 43.1837 26.3537 43.4264C26.2253 43.6691 26.0058 43.851 25.7435 43.9321Z" fill="#2D9CDB"/>
</g>
<g opacity="0.28">
<path opacity="0.28" d="M32.6541 41.7987L29.7193 42.7047C29.4565 42.7847 29.1727 42.7575 28.9298 42.6292C28.6869 42.5009 28.5046 42.2817 28.4226 42.0195C28.3427 41.757 28.3699 41.4735 28.4982 41.231C28.6266 40.9884 28.8457 40.8065 29.1077 40.7249L32.0426 39.8189C32.3049 39.7383 32.5884 39.765 32.831 39.893C33.0737 40.0211 33.2557 40.24 33.3372 40.502C33.4178 40.7645 33.3912 41.0483 33.2632 41.2913C33.1352 41.5343 32.9162 41.7167 32.6541 41.7987Z" fill="#2D9CDB"/>
</g>
<g opacity="0.28">
<path opacity="0.28" d="M33.8669 45.7294L15.9633 51.2514C15.7005 51.332 15.4165 51.3051 15.1734 51.1767C14.9304 51.0483 14.7482 50.8288 14.6666 50.5663C14.5862 50.3038 14.6131 50.02 14.7415 49.7773C14.87 49.5346 15.0894 49.3528 15.3518 49.2717L33.2574 43.7394C33.5202 43.66 33.8038 43.6874 34.0465 43.8157C34.2892 43.9439 34.4716 44.1627 34.5541 44.4246C34.5952 44.5554 34.61 44.693 34.5976 44.8295C34.5853 44.966 34.546 45.0988 34.4821 45.2201C34.4183 45.3413 34.331 45.4488 34.2254 45.5362C34.1198 45.6236 33.998 45.6893 33.8669 45.7294Z" fill="#2D9CDB"/>
</g>
<path d="M34.2514 6.21862L39.6057 18.1503C39.7447 18.4617 39.7548 18.8156 39.6337 19.1344C39.5126 19.4533 39.2702 19.7112 38.9595 19.8519L16.2456 30.0471C15.9342 30.1867 15.5801 30.197 15.2611 30.0759C14.9421 29.9547 14.6842 29.712 14.544 29.4009L9.18761 17.4692C9.0474 17.1576 9.03673 16.803 9.15793 16.4836C9.27913 16.1641 9.52228 15.9058 9.83389 15.7656L32.5478 5.57029C32.8598 5.43134 33.2141 5.42153 33.5334 5.54301C33.8526 5.66449 34.1107 5.90739 34.2514 6.21862Z" fill="#2D9CDB"/>
<path opacity="0.3" d="M34.2514 6.21862L39.6057 18.1503C39.7447 18.4617 39.7548 18.8156 39.6337 19.1344C39.5126 19.4533 39.2702 19.7112 38.9595 19.8519L16.2456 30.0471C15.9342 30.1867 15.5801 30.197 15.2611 30.0759C14.9421 29.9547 14.6842 29.712 14.544 29.4009L9.18761 17.4692C9.0474 17.1576 9.03673 16.803 9.15793 16.4836C9.27913 16.1641 9.52228 15.9058 9.83389 15.7656L32.5478 5.57029C32.8598 5.43134 33.2141 5.42153 33.5334 5.54301C33.8526 5.66449 34.1107 5.90739 34.2514 6.21862Z" fill="black"/>
<path d="M30.6716 5.62897L29.9457 5.95459L30.0294 6.14119L30.7553 5.81558L30.6716 5.62897Z" fill="#2D9CDB"/>
<path d="M28.9291 6.40968L26.6656 7.42505L26.7493 7.61165L29.0128 6.59629L28.9291 6.40968Z" fill="#2D9CDB"/>
<path d="M9.16741 18.6718L8.98083 18.7556L9.60075 20.1363L9.78732 20.0525L9.16741 18.6718Z" fill="#2D9CDB"/>
<path opacity="0.6" d="M33.4906 5.5273L27.6332 17.0008C27.0896 18.0643 26.1995 18.9104 25.1099 19.3994C24.0204 19.8885 22.7965 19.991 21.6407 19.6903L9.17529 16.4404C9.30317 16.1414 9.53799 15.9007 9.83384 15.7655L32.5477 5.57025C32.8453 5.4372 33.1822 5.42186 33.4906 5.5273Z" fill="#2D9CDB"/>
<path d="M41.5425 20.2117L23.917 21.2997C23.6056 21.3182 23.301 21.398 23.0204 21.5343C22.7399 21.6707 22.489 21.8611 22.2821 22.0946C22.0753 22.3281 21.9165 22.6 21.8148 22.8949C21.7132 23.1898 21.6707 23.5019 21.6898 23.8133L23.7002 56.3891C23.719 56.7006 23.799 57.0054 23.9358 57.286C24.0726 57.5666 24.2634 57.8174 24.4973 58.0242C24.7311 58.2309 25.0035 58.3894 25.2988 58.4907C25.594 58.5919 25.9064 58.6339 26.2179 58.6142L48.7763 57.2215C49.0874 57.2027 49.3916 57.1228 49.6717 56.9862C49.9518 56.8496 50.2022 56.6591 50.4085 56.4256C50.6149 56.1921 50.7731 55.9202 50.8741 55.6255C50.9752 55.3307 51.0171 55.0189 50.9974 54.7079L49.2999 27.0631L41.5425 20.2117Z" fill="#2D9CDB"/>
<path opacity="0.8" d="M41.5425 20.2117L23.917 21.2997C23.6056 21.3182 23.301 21.398 23.0204 21.5343C22.7399 21.6707 22.489 21.8611 22.2821 22.0946C22.0753 22.3281 21.9165 22.6 21.8148 22.8949C21.7132 23.1898 21.6707 23.5019 21.6898 23.8133L23.7002 56.3891C23.719 56.7006 23.799 57.0054 23.9358 57.286C24.0726 57.5666 24.2634 57.8174 24.4973 58.0242C24.7311 58.2309 25.0035 58.3894 25.2988 58.4907C25.594 58.5919 25.9064 58.6339 26.2179 58.6142L48.7763 57.2215C49.0874 57.2027 49.3916 57.1228 49.6717 56.9862C49.9518 56.8496 50.2022 56.6591 50.4085 56.4256C50.6149 56.1921 50.7731 55.9202 50.8741 55.6255C50.9752 55.3307 51.0171 55.0189 50.9974 54.7079L49.2999 27.0631L41.5425 20.2117Z" fill="white"/>
<g opacity="0.22">
<path opacity="0.22" d="M42.6081 54.3198L27.942 55.2258C27.668 55.2415 27.3989 55.1481 27.1936 54.9661C26.9882 54.7841 26.8631 54.5282 26.8458 54.2543C26.8301 53.9804 26.9231 53.7115 27.1046 53.5058C27.2861 53.3002 27.5415 53.1745 27.8152 53.156L42.4813 52.2521C42.7553 52.2358 43.0245 52.3286 43.2303 52.5103C43.4361 52.6919 43.5616 52.9476 43.5795 53.2215C43.5958 53.4958 43.5027 53.7654 43.3206 53.9712C43.1385 54.1771 42.8823 54.3024 42.6081 54.3198Z" fill="#2D9CDB"/>
</g>
<g opacity="0.22">
<path opacity="0.22" d="M33.9282 26.0304L26.1708 26.5049C25.897 26.5206 25.628 26.4276 25.4223 26.246C25.2167 26.0645 25.091 25.8091 25.0726 25.5354C25.0569 25.2613 25.1502 24.992 25.3321 24.7863C25.5141 24.5805 25.77 24.4551 26.044 24.4372L33.8014 23.9586C34.0752 23.9424 34.3443 24.0353 34.5497 24.2169C34.7552 24.3986 34.8803 24.6543 34.8977 24.928C34.915 25.2027 34.8227 25.473 34.641 25.6797C34.4592 25.8864 34.2029 26.0125 33.9282 26.0304Z" fill="#2D9CDB"/>
</g>
<g opacity="0.22">
<path opacity="0.22" d="M39.2416 29.8223L26.4244 30.6118C26.1503 30.6286 25.8807 30.5359 25.6748 30.3542C25.4689 30.1724 25.3435 29.9164 25.3262 29.6423C25.3099 29.368 25.403 29.0984 25.5851 28.8926C25.7672 28.6868 26.0234 28.5614 26.2976 28.5441L39.1128 27.7546C39.3869 27.7378 39.6565 27.8305 39.8624 28.0122C40.0683 28.194 40.1937 28.45 40.2111 28.7241C40.2273 28.998 40.1345 29.2673 39.9529 29.4731C39.7712 29.6789 39.5155 29.8044 39.2416 29.8223Z" fill="#2D9CDB"/>
</g>
<g opacity="0.22">
<path opacity="0.22" d="M45.3834 33.5629L26.6781 34.7164C26.4032 34.7332 26.1329 34.6404 25.9263 34.4583C25.7197 34.2762 25.5936 34.0197 25.5757 33.7449C25.5595 33.4711 25.6524 33.2021 25.8341 32.9966C26.0158 32.7912 26.2714 32.6661 26.5452 32.6487L45.2525 31.4932C45.5265 31.4775 45.7956 31.5708 46.0009 31.7528C46.2063 31.9349 46.3314 32.1907 46.3487 32.4646C46.365 32.7379 46.2728 33.0067 46.092 33.2123C45.9112 33.418 45.6566 33.544 45.3834 33.5629Z" fill="#2D9CDB"/>
</g>
<g opacity="0.22">
<path opacity="0.22" d="M45.637 37.6656L34.7627 38.3364C34.4887 38.3527 34.2194 38.2598 34.0136 38.0782C33.8079 37.8966 33.6823 37.6409 33.6644 37.367C33.6476 37.0929 33.7403 36.8233 33.922 36.6174C34.1037 36.4115 34.3597 36.2861 34.6338 36.2687L45.5081 35.5979C45.7822 35.5811 46.0518 35.6737 46.2577 35.8555C46.4636 36.0372 46.589 36.2932 46.6064 36.5673C46.6226 36.8413 46.5298 37.1106 46.3482 37.3164C46.1665 37.5222 45.9109 37.6477 45.637 37.6656Z" fill="#2D9CDB"/>
</g>
<g opacity="0.22">
<path opacity="0.22" d="M29.7745 38.6431L26.9296 38.819C26.6558 38.8353 26.3867 38.7424 26.1813 38.5607C25.9758 38.379 25.8507 38.1233 25.8334 37.8496C25.8171 37.5756 25.9099 37.3063 26.0916 37.1005C26.2732 36.8948 26.5289 36.7692 26.8028 36.7513L29.6477 36.5754C29.9218 36.5597 30.1911 36.653 30.3968 36.835C30.6026 37.017 30.728 37.2728 30.7459 37.5469C30.7616 37.8209 30.6682 38.0899 30.4862 38.2953C30.3042 38.5007 30.0483 38.6258 29.7745 38.6431Z" fill="#2D9CDB"/>
</g>
<g opacity="0.22">
<path opacity="0.22" d="M45.8906 41.768L27.1832 42.9215C26.9092 42.9377 26.6399 42.8449 26.4342 42.6633C26.2284 42.4816 26.1028 42.226 26.085 41.9521C26.0693 41.6779 26.1626 41.4086 26.3445 41.2029C26.5265 40.9972 26.7824 40.8717 27.0564 40.8538L45.7617 39.7003C46.0361 39.6841 46.3057 39.7772 46.5115 39.9592C46.7173 40.1413 46.8426 40.3975 46.86 40.6718C46.8763 40.9456 46.7834 41.2146 46.6017 41.4201C46.42 41.6255 46.1643 41.7506 45.8906 41.768Z" fill="#2D9CDB"/>
</g>
<g opacity="0.22">
<path opacity="0.22" d="M38.9247 46.3167L27.4369 47.0264C27.1627 47.0421 26.8934 46.9488 26.6877 46.7668C26.482 46.5849 26.3565 46.329 26.3386 46.0549C26.3229 45.7809 26.4163 45.5119 26.5983 45.3065C26.7803 45.1011 27.0362 44.9761 27.3101 44.9587L38.7979 44.249C39.0719 44.2333 39.341 44.3267 39.5463 44.5087C39.7517 44.6907 39.8768 44.9466 39.8941 45.2205C39.9109 45.4944 39.8182 45.7638 39.6364 45.9693C39.4546 46.1749 39.1986 46.2999 38.9247 46.3167Z" fill="#2D9CDB"/>
</g>
<g opacity="0.22">
<path opacity="0.22" d="M46.1421 45.8731L43.0744 46.0612C42.8006 46.0775 42.5315 45.9846 42.3261 45.8029C42.1206 45.6212 41.9955 45.3655 41.9781 45.0918C41.9613 44.8177 42.054 44.5481 42.2357 44.3422C42.4175 44.1363 42.6735 44.0109 42.9476 43.9936L46.0153 43.8054C46.2895 43.7886 46.5591 43.8812 46.765 44.063C46.9709 44.2447 47.0962 44.5007 47.1136 44.7748C47.1293 45.049 47.036 45.3183 46.854 45.524C46.6721 45.7297 46.4162 45.8552 46.1421 45.8731Z" fill="#2D9CDB"/>
</g>
<g opacity="0.22">
<path opacity="0.22" d="M46.3957 49.9755L27.6904 51.129C27.4164 51.1452 27.1471 51.0524 26.9414 50.8708C26.7356 50.6891 26.61 50.4335 26.5922 50.1596C26.5759 49.8856 26.6687 49.6163 26.8504 49.4105C27.032 49.2047 27.2877 49.0792 27.5616 49.0613L46.2689 47.9078C46.5427 47.8916 46.8118 47.9845 47.0172 48.1662C47.2227 48.3479 47.3478 48.6035 47.3652 48.8772C47.382 49.1514 47.2893 49.421 47.1076 49.6269C46.9258 49.8328 46.6698 49.9581 46.3957 49.9755Z" fill="#2D9CDB"/>
</g>
<path opacity="0.22" d="M41.5425 20.2117L41.8472 25.1447C41.8662 25.4557 41.9463 25.7599 42.083 26.04C42.2196 26.3201 42.41 26.5705 42.6435 26.7769C42.8769 26.9834 43.1487 27.1418 43.4433 27.2432C43.738 27.3446 44.0497 27.3869 44.3608 27.3678L49.2999 27.0631L41.5425 20.2117Z" fill="#2D9CDB"/>
<path opacity="0.5" d="M35.771 32.5177C35.7679 32.2813 35.7175 32.048 35.6227 31.8314C35.5279 31.6148 35.3906 31.4194 35.219 31.2568C35.0474 31.0942 34.845 30.9676 34.6237 30.8845C34.4023 30.8015 34.1666 30.7636 33.9303 30.7732H17.5484C16.3069 30.7732 15.0941 31.7815 14.861 33.0229L8.39612 66.1448C8.15478 67.3862 8.96468 68.3945 10.2061 68.3945H62.154C63.3954 68.3945 64.598 67.3883 64.8414 66.1448L70.1732 38.8415C70.4145 37.598 69.6046 36.5918 68.3632 36.5918H40.0966C37.6424 36.5918 35.8549 34.9024 35.771 32.5177Z" fill="#2D9CDB"/>
</svg>
