<svg width="23" height="23" viewBox="0 0 23 23" fill="none" xmlns="http://www.w3.org/2000/svg">
<path d="M19.1691 2.875H3.83094C3.57799 2.87688 3.33593 2.9782 3.15707 3.15707C2.9782 3.33593 2.87688 3.57799 2.875 3.83094V19.1691C2.87688 19.422 2.9782 19.6641 3.15707 19.8429C3.33593 20.0218 3.57799 20.1231 3.83094 20.125H12.0894V13.455H9.84687V10.8459H12.0894V8.92688C12.0894 6.69875 13.4478 5.48406 15.4459 5.48406C16.1144 5.48406 16.7828 5.48406 17.4513 5.58469V7.90625H16.0784C14.9931 7.90625 14.7847 8.42375 14.7847 9.17844V10.8387H17.3722L17.0344 13.4478H14.7847V20.125H19.1691C19.422 20.1231 19.6641 20.0218 19.8429 19.8429C20.0218 19.6641 20.1231 19.422 20.125 19.1691V3.83094C20.1231 3.57799 20.0218 3.33593 19.8429 3.15707C19.6641 2.9782 19.422 2.87688 19.1691 2.875V2.875Z" fill="white"/>
</svg>
