<svg width="33" height="33" viewBox="0 0 33 33" fill="none" xmlns="http://www.w3.org/2000/svg">
<path d="M19.5938 24.75C20.7328 24.75 21.6562 23.8266 21.6562 22.6875C21.6562 21.5484 20.7328 20.625 19.5938 20.625C18.4547 20.625 17.5312 21.5484 17.5312 22.6875C17.5312 23.8266 18.4547 24.75 19.5938 24.75Z" fill="white"/>
<path d="M27.8438 16.5H24.4612L23.9013 14.816C23.7645 14.4051 23.5018 14.0478 23.1505 13.7948C22.7991 13.5417 22.377 13.4058 21.944 13.4063H17.2435C16.8104 13.4058 16.3882 13.5419 16.0368 13.7952C15.6854 14.0484 15.4228 14.406 15.2862 14.817L14.7262 16.5H11.3438C10.7969 16.5005 10.2726 16.718 9.88595 17.1047C9.49927 17.4914 9.2818 18.0157 9.28125 18.5625V27.8437C9.2818 28.3906 9.49927 28.9149 9.88595 29.3016C10.2726 29.6882 10.7969 29.9057 11.3438 29.9062H27.8438C28.3906 29.9057 28.9149 29.6882 29.3016 29.3016C29.6882 28.9149 29.9057 28.3906 29.9062 27.8437V18.5625C29.9057 18.0157 29.6882 17.4914 29.3016 17.1047C28.9149 16.718 28.3906 16.5005 27.8438 16.5ZM19.5938 26.8125C18.7779 26.8125 17.9804 26.5706 17.302 26.1173C16.6237 25.6641 16.095 25.0198 15.7827 24.2661C15.4705 23.5123 15.3888 22.6829 15.548 21.8828C15.7072 21.0826 16.1 20.3476 16.6769 19.7707C17.2538 19.1938 17.9888 18.8009 18.789 18.6418C19.5892 18.4826 20.4186 18.5643 21.1723 18.8765C21.9261 19.1887 22.5703 19.7174 23.0236 20.3958C23.4768 21.0741 23.7188 21.8717 23.7188 22.6875C23.7174 23.7811 23.2823 24.8295 22.5091 25.6028C21.7358 26.3761 20.6873 26.8111 19.5938 26.8125Z" fill="white"/>
<path d="M27.8438 11.3438H29.9062V13.4062H27.8438V11.3438Z" fill="white"/>
<path d="M27.8438 7.21875H29.9062V9.28125H27.8438V7.21875Z" fill="white"/>
<path d="M27.8438 3.09375H29.9062V5.15625H27.8438V3.09375Z" fill="white"/>
<path d="M23.7188 3.09375H25.7812V5.15625H23.7188V3.09375Z" fill="white"/>
<path d="M19.5938 3.09375H21.6562V5.15625H19.5938V3.09375Z" fill="white"/>
<path d="M15.4688 3.09375H17.5312V5.15625H15.4688V3.09375Z" fill="white"/>
<path d="M11.3438 3.09375H13.4062V5.15625H11.3438V3.09375Z" fill="white"/>
<path d="M7.21875 3.09375H9.28125V5.15625H7.21875V3.09375Z" fill="white"/>
<path d="M3.09375 3.09375H5.15625V5.15625H3.09375V3.09375Z" fill="white"/>
<path d="M3.09375 7.21875H5.15625V9.28125H3.09375V7.21875Z" fill="white"/>
<path d="M3.09375 11.3438H5.15625V13.4062H3.09375V11.3438Z" fill="white"/>
<path d="M3.09375 15.4688H5.15625V17.5312H3.09375V15.4688Z" fill="white"/>
<path d="M3.09375 19.5938H5.15625V21.6562H3.09375V19.5938Z" fill="white"/>
<path d="M3.09375 23.7188H5.15625V25.7812H3.09375V23.7188Z" fill="white"/>
<path d="M3.09375 27.8438H5.15625V29.9062H3.09375V27.8438Z" fill="white"/>
</svg>
