<svg width="30" height="30" viewBox="0 0 30 30" fill="none" xmlns="http://www.w3.org/2000/svg">
<path d="M3.23235 1.97439C3.07542 1.8959 2.8996 1.86303 2.7249 1.87951C2.55021 1.896 2.38364 1.96119 2.24416 2.06765C2.10468 2.17412 1.99788 2.3176 1.93591 2.48176C1.87393 2.64592 1.85928 2.82419 1.8936 2.99627L4.52423 12.09C4.57328 12.2595 4.66915 12.4117 4.80083 12.5291C4.93251 12.6465 5.09464 12.7244 5.2686 12.7538L15.9374 14.5406C16.4399 14.64 16.4399 15.36 15.9374 15.4594L5.2686 17.2463C5.09464 17.2757 4.93251 17.3535 4.80083 17.4709C4.66915 17.5884 4.57328 17.7405 4.52423 17.91L1.8936 27.0038C1.85928 27.1758 1.87393 27.3541 1.93591 27.5183C1.99788 27.6824 2.10468 27.8259 2.24416 27.9324C2.38364 28.0388 2.55021 28.104 2.7249 28.1205C2.8996 28.137 3.07542 28.1041 3.23235 28.0256L27.6074 15.8381C27.7629 15.7602 27.8936 15.6405 27.985 15.4925C28.0764 15.3445 28.1248 15.174 28.1248 15C28.1248 14.8261 28.0764 14.6555 27.985 14.5075C27.8936 14.3595 27.7629 14.2398 27.6074 14.1619L3.23235 1.97439Z" fill="white"/>
</svg>
