<svg width="18" height="18" viewBox="0 0 18 18" fill="none" xmlns="http://www.w3.org/2000/svg">
<path d="M16.2941 0H0.955937C0.702988 0.00188074 0.460933 0.103199 0.282066 0.282066C0.103199 0.460933 0.00188074 0.702988 0 0.955937V16.2941C0.00188074 16.547 0.103199 16.7891 0.282066 16.9679C0.460933 17.1468 0.702988 17.2481 0.955937 17.25H9.21437V10.58H6.97187V7.97094H9.21437V6.05188C9.21437 3.82375 10.5728 2.60906 12.5709 2.60906C13.2394 2.60906 13.9078 2.60906 14.5763 2.70969V5.03125H13.2034C12.1181 5.03125 11.9097 5.54875 11.9097 6.30344V7.96375H14.4972L14.1594 10.5728H11.9097V17.25H16.2941C16.547 17.2481 16.7891 17.1468 16.9679 16.9679C17.1468 16.7891 17.2481 16.547 17.25 16.2941V0.955937C17.2481 0.702988 17.1468 0.460933 16.9679 0.282066C16.7891 0.103199 16.547 0.00188074 16.2941 0V0Z" fill="white"/>
</svg>
